<?xml version="1.0" encoding="UTF-8"?>
<!DOCTYPE svg PUBLIC "-//W3C//DTD SVG 1.1//EN" "http://www.w3.org/Graphics/SVG/1.1/DTD/svg11.dtd">
<svg xmlns="http://www.w3.org/2000/svg" version="1.1" width="200px" height="200px" style="shape-rendering:geometricPrecision; text-rendering:geometricPrecision; image-rendering:optimizeQuality; fill-rule:evenodd; clip-rule:evenodd" xmlns:xlink="http://www.w3.org/1999/xlink">
<g><path style="opacity:1" fill="#fefefe" d="M -0.5,-0.5 C 66.1667,-0.5 132.833,-0.5 199.5,-0.5C 199.5,66.1667 199.5,132.833 199.5,199.5C 132.833,199.5 66.1667,199.5 -0.5,199.5C -0.5,132.833 -0.5,66.1667 -0.5,-0.5 Z"/></g>
<g><path style="opacity:1" fill="#193e62" d="M 97.5,59.5 C 99.3084,59.4914 100.975,59.9914 102.5,61C 109.5,65.5 116.5,70 123.5,74.5C 124.429,75.6888 124.762,77.0222 124.5,78.5C 115.967,73.9952 107.633,68.9952 99.5,63.5C 91.5,68.5 83.5,73.5 75.5,78.5C 74.1667,77.1667 74.1667,75.8333 75.5,74.5C 83.246,69.9716 90.5794,64.9716 97.5,59.5 Z"/></g>
<g><path style="opacity:1" fill="#64b7ff" d="M 84.5,76.5 C 85.4959,76.4142 86.3292,76.7476 87,77.5C 87.4988,81.4862 87.6655,85.4862 87.5,89.5C 95.5,89.5 103.5,89.5 111.5,89.5C 111.334,85.4862 111.501,81.4862 112,77.5C 113,76.1667 114,76.1667 115,77.5C 115.804,82.7513 115.637,87.918 114.5,93C 104.5,93.6667 94.5,93.6667 84.5,93C 83.1888,87.5004 83.1888,82.0004 84.5,76.5 Z"/></g>
<g><path style="opacity:1" fill="#0a365c" d="M 73.5,97.5 C 74.5,97.5 75.5,97.5 76.5,97.5C 76.5,98.8333 76.5,100.167 76.5,101.5C 75.5,101.5 74.5,101.5 73.5,101.5C 73.5,100.167 73.5,98.8333 73.5,97.5 Z"/></g>
<g><path style="opacity:1" fill="#163c61" d="M 134.5,97.5 C 136.346,97.2222 137.68,97.8888 138.5,99.5C 137.68,101.111 136.346,101.778 134.5,101.5C 134.5,100.167 134.5,98.8333 134.5,97.5 Z"/></g>
<g><path style="opacity:1" fill="#0d375c" d="M 119.5,106.5 C 118.5,106.5 117.5,106.5 116.5,106.5C 116.181,111.363 116.514,116.03 117.5,120.5C 120.028,121.518 119.861,122.518 117,123.5C 115.739,123.241 114.739,122.574 114,121.5C 114.05,115.946 113.217,110.612 111.5,105.5C 113.333,103.834 114.666,101.834 115.5,99.5C 116.452,101.045 116.785,102.712 116.5,104.5C 118.179,104.285 119.179,104.952 119.5,106.5 Z"/></g>
<g><path style="opacity:1" fill="#bcc9d2" d="M 22.5,104.5 C 22.5,112.5 22.5,120.5 22.5,128.5C 23.5,128.5 24.5,128.5 25.5,128.5C 25.2011,126.396 25.5344,124.396 26.5,122.5C 27.1067,122.624 27.44,122.957 27.5,123.5C 26.5386,125.265 26.2053,127.265 26.5,129.5C 24.8333,129.5 23.1667,129.5 21.5,129.5C 21.1739,120.983 21.5073,112.65 22.5,104.5 Z"/></g>
<g><path style="opacity:1" fill="#10395e" d="M 22.5,104.5 C 24.5971,105.353 26.5971,105.353 28.5,104.5C 30.0293,104.529 31.196,105.196 32,106.5C 32.9735,112.187 32.4735,117.687 30.5,123C 29.552,123.483 28.552,123.649 27.5,123.5C 27.44,122.957 27.1067,122.624 26.5,122.5C 25.5344,124.396 25.2011,126.396 25.5,128.5C 24.5,128.5 23.5,128.5 22.5,128.5C 22.5,120.5 22.5,112.5 22.5,104.5 Z"/></g>
<g><path style="opacity:1" fill="#183d61" d="M 37.5,104.5 C 44.3493,104.123 47.016,107.456 45.5,114.5C 43.1667,114.5 40.8333,114.5 38.5,114.5C 37.913,120.636 39.5797,121.636 43.5,117.5C 45.1737,120.782 44.1737,122.782 40.5,123.5C 38.399,123.368 36.899,122.368 36,120.5C 34.9456,114.886 35.4456,109.552 37.5,104.5 Z"/></g>
<g><path style="opacity:1" fill="#b9c6d0" d="M 48.5,104.5 C 48.5,110.5 48.5,116.5 48.5,122.5C 49.5,122.5 50.5,122.5 51.5,122.5C 50.4324,123.434 49.099,123.768 47.5,123.5C 47.1765,116.978 47.5098,110.645 48.5,104.5 Z"/></g>
<g><path style="opacity:1" fill="#0a355b" d="M 48.5,104.5 C 51.4627,104.723 54.4627,105.056 57.5,105.5C 58.4544,111.104 58.7877,116.771 58.5,122.5C 57.5,122.5 56.5,122.5 55.5,122.5C 55.6659,117.489 55.4993,112.489 55,107.5C 54,106.167 53,106.167 52,107.5C 51.5007,112.489 51.3341,117.489 51.5,122.5C 50.5,122.5 49.5,122.5 48.5,122.5C 48.5,116.5 48.5,110.5 48.5,104.5 Z"/></g>
<g><path style="opacity:1" fill="#1c4064" d="M 62.5,104.5 C 67.836,103.185 70.5026,105.185 70.5,110.5C 69.5,110.5 68.5,110.5 67.5,110.5C 67.5,109.167 67.5,107.833 67.5,106.5C 66.5,106.5 65.5,106.5 64.5,106.5C 64.3433,107.873 64.51,109.207 65,110.5C 70.2208,113.72 71.3875,117.887 68.5,123C 63.6624,124.328 61.329,122.494 61.5,117.5C 62.5,117.5 63.5,117.5 64.5,117.5C 64.5,118.5 64.5,119.5 64.5,120.5C 65.5,120.5 66.5,120.5 67.5,120.5C 66.3591,117.167 64.5258,114.167 62,111.5C 61.2967,109.071 61.4634,106.738 62.5,104.5 Z"/></g>
<g><path style="opacity:1" fill="#becad4" d="M 73.5,104.5 C 73.5,110.5 73.5,116.5 73.5,122.5C 74.5,122.5 75.5,122.5 76.5,122.5C 76.5,116.5 76.5,110.5 76.5,104.5C 77.4902,110.645 77.8235,116.978 77.5,123.5C 75.8333,123.5 74.1667,123.5 72.5,123.5C 72.1765,116.978 72.5098,110.645 73.5,104.5 Z"/></g>
<g><path style="opacity:1" fill="#053259" d="M 73.5,104.5 C 74.5,104.5 75.5,104.5 76.5,104.5C 76.5,110.5 76.5,116.5 76.5,122.5C 75.5,122.5 74.5,122.5 73.5,122.5C 73.5,116.5 73.5,110.5 73.5,104.5 Z"/></g>
<g><path style="opacity:1" fill="#28496b" d="M 82.5,104.5 C 86.1816,103.725 88.6816,105.059 90,108.5C 91.2534,113.799 90.4201,118.632 87.5,123C 83.8339,124.271 81.3339,123.104 80,119.5C 78.776,114.043 79.6093,109.043 82.5,104.5 Z"/></g>
<g><path style="opacity:1" fill="#b9c6d0" d="M 93.5,104.5 C 93.5,110.5 93.5,116.5 93.5,122.5C 94.5,122.5 95.5,122.5 96.5,122.5C 95.4324,123.434 94.099,123.768 92.5,123.5C 92.1765,116.978 92.5098,110.645 93.5,104.5 Z"/></g>
<g><path style="opacity:1" fill="#0a355b" d="M 93.5,104.5 C 96.4627,104.723 99.4627,105.056 102.5,105.5C 103.454,111.104 103.788,116.771 103.5,122.5C 102.5,122.5 101.5,122.5 100.5,122.5C 100.666,117.489 100.499,112.489 100,107.5C 99,106.167 98,106.167 97,107.5C 96.5007,112.489 96.3341,117.489 96.5,122.5C 95.5,122.5 94.5,122.5 93.5,122.5C 93.5,116.5 93.5,110.5 93.5,104.5 Z"/></g>
<g><path style="opacity:1" fill="#204366" d="M 123.5,104.5 C 130.833,103.847 133.499,107.18 131.5,114.5C 129.5,114.5 127.5,114.5 125.5,114.5C 125.5,116.5 125.5,118.5 125.5,120.5C 126.5,120.5 127.5,120.5 128.5,120.5C 128.5,119.5 128.5,118.5 128.5,117.5C 129.5,117.5 130.5,117.5 131.5,117.5C 130.897,123.651 128.064,124.984 123,121.5C 120.903,115.7 121.07,110.034 123.5,104.5 Z"/></g>
<g><path style="opacity:1" fill="#2f4e70" d="M 134.5,104.5 C 135.833,104.5 137.167,104.5 138.5,104.5C 138.666,111.841 138.5,119.174 138,126.5C 136.847,128.497 135.347,128.83 133.5,127.5C 134.467,119.89 134.8,112.223 134.5,104.5 Z"/></g>
<g><path style="opacity:1" fill="#1e4165" d="M 142.5,104.5 C 145.119,104.232 147.619,104.565 150,105.5C 150.83,111.528 150.664,117.528 149.5,123.5C 147.259,123.119 144.926,122.952 142.5,123C 139.284,117.754 140.618,114.088 146.5,112C 147.99,109.8 147.657,107.966 145.5,106.5C 144.148,107.518 143.148,108.851 142.5,110.5C 141.306,108.484 141.306,106.484 142.5,104.5 Z"/></g>
<g><path style="opacity:1" fill="#2a4a6c" d="M 160.5,98.5 C 161.833,98.5 163.167,98.5 164.5,98.5C 164.5,106.5 164.5,114.5 164.5,122.5C 163.178,122.67 162.011,122.337 161,121.5C 158.368,124.192 156.034,123.859 154,120.5C 153.333,115.833 153.333,111.167 154,106.5C 155.789,104.771 157.956,104.104 160.5,104.5C 160.5,102.5 160.5,100.5 160.5,98.5 Z"/></g>
<g><path style="opacity:1" fill="#1d4064" d="M 168.5,104.5 C 171.394,104.042 173.894,104.709 176,106.5C 176.83,112.196 176.663,117.863 175.5,123.5C 173.89,122.448 172.223,122.448 170.5,123.5C 166.222,121.661 165.389,118.661 168,114.5C 169.419,113.54 170.919,112.707 172.5,112C 173.99,109.8 173.657,107.966 171.5,106.5C 170.148,107.518 169.148,108.851 168.5,110.5C 167.306,108.484 167.306,106.484 168.5,104.5 Z"/></g>
<g><path style="opacity:1" fill="#d5dce3" d="M 26.5,106.5 C 27.4959,106.414 28.3292,106.748 29,107.5C 29.6667,111.5 29.6667,115.5 29,119.5C 27.9887,120.337 26.8221,120.67 25.5,120.5C 25.2256,115.737 25.559,111.07 26.5,106.5 Z"/></g>
<g><path style="opacity:1" fill="#e6ebee" d="M 41.5,107.5 C 41.5,108.833 41.5,110.167 41.5,111.5C 40.5,111.5 39.5,111.5 38.5,111.5C 38.3433,110.127 38.51,108.793 39,107.5C 39.9772,106.226 40.8106,106.226 41.5,107.5 Z"/></g>
<g><path style="opacity:1" fill="#f0f3f5" d="M 83.5,106.5 C 84.5,106.5 85.5,106.5 86.5,106.5C 86.5,111.167 86.5,115.833 86.5,120.5C 85.5,120.5 84.5,120.5 83.5,120.5C 83.5,115.833 83.5,111.167 83.5,106.5 Z"/></g>
<g><path style="opacity:1" fill="#bac7d1" d="M 119.5,106.5 C 117.652,110.854 116.985,115.52 117.5,120.5C 116.514,116.03 116.181,111.363 116.5,106.5C 117.5,106.5 118.5,106.5 119.5,106.5 Z"/></g>
<g><path style="opacity:1" fill="#f0f3f5" d="M 125.5,106.5 C 128.084,107.048 129.084,108.715 128.5,111.5C 127.5,111.5 126.5,111.5 125.5,111.5C 125.5,109.833 125.5,108.167 125.5,106.5 Z"/></g>
<g><path style="opacity:1" fill="#f6f8f9" d="M 157.5,106.5 C 158.496,106.414 159.329,106.748 160,107.5C 160.499,111.821 160.666,116.154 160.5,120.5C 159.5,120.5 158.5,120.5 157.5,120.5C 157.5,115.833 157.5,111.167 157.5,106.5 Z"/></g>
<g><path style="opacity:1" fill="#748da3" d="M 41.5,107.5 C 42.4511,108.919 42.7845,110.585 42.5,112.5C 40.901,112.768 39.5676,112.434 38.5,111.5C 39.5,111.5 40.5,111.5 41.5,111.5C 41.5,110.167 41.5,108.833 41.5,107.5 Z"/></g>
<g><path style="opacity:1" fill="#e8ecef" d="M 145.5,114.5 C 147.308,115.918 147.975,117.918 147.5,120.5C 146.5,120.5 145.5,120.5 144.5,120.5C 144.325,118.379 144.659,116.379 145.5,114.5 Z"/></g>
<g><path style="opacity:1" fill="#e9edf0" d="M 171.5,114.5 C 173.308,115.918 173.975,117.918 173.5,120.5C 172.5,120.5 171.5,120.5 170.5,120.5C 170.325,118.379 170.659,116.379 171.5,114.5 Z"/></g>
<g><path style="opacity:1" fill="#4dafff" d="M 81.5,136.5 C 93.5,136.5 105.5,136.5 117.5,136.5C 117.5,137.5 117.5,138.5 117.5,139.5C 105.5,139.5 93.5,139.5 81.5,139.5C 81.5,138.5 81.5,137.5 81.5,136.5 Z"/></g>
</svg>
